<svg width="64" height="64" viewBox="0 0 64 64" fill="none" xmlns="http://www.w3.org/2000/svg">
<style>
  path { fill: #2A303C; }
  @media (prefers-color-scheme: dark) {
    path { fill: #B2CBD6; }
  }
</style>
<g clip-path="url(#clip0_1353_7)">
<path d="M13.8644 14.56C13.8644 15.84 13.8377 17.28 13.7844 18.88C13.7844 20.48 13.7844 22.1333 13.7844 23.84C13.8377 25.5467 13.8644 27.3067 13.8644 29.12C13.9177 30.9333 13.971 32.6667 14.0244 34.32C14.5577 33.2533 15.1977 32.2133 15.9444 31.2C16.691 30.1333 17.5177 29.2 18.4244 28.4C19.3844 27.6 20.371 26.96 21.3844 26.48C22.451 26 23.5977 25.76 24.8244 25.76C26.1577 25.76 27.331 26.1867 28.3444 27.04C29.411 27.8933 30.3177 29.04 31.0644 30.48C31.8644 31.8667 32.531 33.44 33.0644 35.2C33.5977 36.9067 34.0244 38.6667 34.3444 40.48C34.7177 42.24 34.9844 43.9467 35.1444 45.6C35.3044 47.2 35.4377 48.5867 35.5444 49.76C35.5444 50.6133 35.331 51.3067 34.9044 51.84C34.4777 52.3733 33.971 52.64 33.3844 52.64C32.9577 52.64 32.4244 52.3733 31.7844 51.84C31.1977 51.2533 30.771 50.56 30.5044 49.76C30.3444 49.12 30.1844 48.1867 30.0244 46.96C29.8644 45.7333 29.6777 44.4267 29.4644 43.04C29.251 41.6 28.9844 40.16 28.6644 38.72C28.3444 37.28 27.9444 36 27.4644 34.88C27.0377 33.7067 26.5044 32.8 25.8644 32.16C25.2244 31.52 24.4777 31.28 23.6244 31.44C22.291 31.7067 21.1177 32.64 20.1044 34.24C19.1444 35.84 18.291 37.6533 17.5444 39.68C16.851 41.7067 16.2644 43.76 15.7844 45.84C15.3577 47.92 15.0377 49.6 14.8244 50.88C14.611 51.84 14.3177 52.5067 13.9444 52.88C13.6244 53.2 13.251 53.36 12.8244 53.36C12.3977 53.36 11.9977 53.1467 11.6244 52.72C11.3044 52.2933 10.9844 51.7867 10.6644 51.2C10.3977 50.56 10.1577 49.92 9.94438 49.28C9.73104 48.5867 9.59771 48 9.54438 47.52C9.27771 44.64 9.06438 41.8933 8.90438 39.28C8.74438 36.6133 8.61104 33.9467 8.50438 31.28C8.45104 28.6133 8.42438 25.8933 8.42438 23.12C8.42438 20.2933 8.47771 17.28 8.58438 14.08C8.58438 11.4133 9.54438 10.2133 11.4644 10.48C12.1044 10.5867 12.6644 11.0667 13.1444 11.92C13.6244 12.72 13.8644 13.6 13.8644 14.56ZM51.7113 29.44C51.3379 29.6533 50.8846 29.7333 50.3513 29.68C49.8179 29.5733 49.3646 29.2267 48.9913 28.64C48.1379 27.52 47.0979 26.96 45.8713 26.96C44.7513 26.96 43.7379 27.2267 42.8313 27.76C41.9779 28.24 41.2046 28.9067 40.5113 29.76C39.8713 30.56 39.3379 31.4667 38.9113 32.48C38.4846 33.4933 38.1913 34.5067 38.0313 35.52C37.7646 37.3867 38.0846 38.96 38.9913 40.24C39.8979 41.52 41.3113 42.16 43.2313 42.16C44.7779 42.2133 46.5113 41.92 48.4313 41.28C50.4046 40.5867 52.2446 39.7067 53.9513 38.64C54.6979 38.32 55.3913 38.1333 56.0313 38.08C56.6713 38.0267 57.2046 38.3467 57.6313 39.04C58.1646 39.8933 58.0313 40.7733 57.2313 41.68C56.4313 42.5333 55.3646 43.3067 54.0313 44C52.6979 44.7467 51.2846 45.4133 49.7913 46C48.3513 46.5333 46.8846 46.9333 45.3913 47.2C43.8979 47.4133 42.4046 47.4133 40.9113 47.2C39.4713 46.9867 38.1113 46.48 36.8313 45.68C34.8046 44.2933 33.5779 42.32 33.1513 39.76C32.7246 37.2 32.9113 34.56 33.7113 31.84C34.0313 30.8267 34.4846 29.8133 35.0713 28.8C35.6579 27.7333 36.3513 26.7733 37.1513 25.92C38.0046 25.0667 38.9379 24.3467 39.9513 23.76C40.9646 23.12 42.0846 22.6933 43.3113 22.48C45.2846 22.16 47.1779 22.3733 48.9913 23.12C50.8046 23.8133 52.0046 25.12 52.5913 27.04C52.6979 27.4667 52.6979 27.92 52.5913 28.4C52.4846 28.8267 52.1913 29.1733 51.7113 29.44Z"/>
</g>
<defs>
<clipPath id="clip0_1353_7">
<rect width="64" height="64" fill="white"/>
</clipPath>
</defs>
</svg>
